# This file uses meters as units for non-parametric coordinates.

g default
v 25.956390 0.022788 -59.841602
v 9.917918 0.022788 -71.494225
v -9.906724 0.022788 -71.494225
v -25.945194 0.022788 -59.841591
v -32.095329 0.022788 -40.946648
v 32.092422 0.022788 -40.946648
v 25.956390 2.072927 -59.841602
v 9.917918 2.072927 -71.494225
v -9.906724 2.072927 -71.494225
v -25.945194 2.072927 -59.841591
v -32.095329 2.072927 -40.946648
v 32.092422 2.072927 -40.946648
v 0.005600 0.022788 -40.987244
v 0.005600 2.072927 -40.987244
v -48.157784 0.022788 -52.558685
v -67.982430 0.022788 -52.558685
v -84.020897 0.022788 -40.906052
v -90.147041 0.022788 -22.051693
v -84.020897 0.022788 -3.197341
v -48.157784 2.072927 -52.558685
v -67.982430 2.072927 -52.558685
v -84.020897 2.072927 -40.906052
v -90.147041 2.072927 -22.051693
v -84.020897 2.072927 -3.197341
v -58.070107 0.022788 -22.051697
v -58.070107 2.072927 -22.051697
v 67.965416 0.022788 -52.558685
v 48.140778 0.022788 -52.558685
v 84.003891 0.022788 -3.197345
v 90.130043 0.022788 -22.051697
v 84.003891 0.022788 -40.906052
v 67.965416 2.072927 -52.558685
v 48.140778 2.072927 -52.558685
v 84.003891 2.072927 -3.197345
v 90.130043 2.072927 -22.051697
v 84.003891 2.072927 -40.906052
v 58.053101 0.022788 -22.051697
v 58.053101 2.072927 -22.051697
v 0.005600 0.022788 66.331207
v -32.095333 0.022788 70.832794
v 32.092426 0.022788 70.832794
v -32.095333 2.072927 70.832794
v 0.005600 2.072927 66.331207
v 32.092426 2.072927 70.832794
v -88.200928 0.022788 40.286797
v -88.200928 2.072927 40.286797
v -54.854698 0.022788 67.296028
v -54.854698 2.072927 67.296028
v 88.183914 0.022788 40.286797
v 88.183914 2.072927 40.286797
v 54.837696 0.022788 67.296028
v 54.837696 2.072927 67.296028
v 91.070389 2.072927 20.013628
v 91.070389 0.022788 20.013628
v -91.087402 0.022788 20.013634
v -91.087402 2.072927 20.013634
v 16.049013 2.072927 67.617371
v 16.049013 0.022788 67.617371
v -16.044867 0.022788 67.617371
v -16.044867 2.072927 67.617371
v 74.565445 2.072927 56.846043
v 74.565445 0.022788 56.846043
v -74.582451 2.072927 56.846043
v -74.582451 0.022788 56.846043
vt 0.235020 0.479333
vt 0.291402 0.521056
vt 0.692375 0.982471
vt 0.746427 0.945238
vt 0.361540 0.521670
vt 0.628050 0.983342
vt 0.418644 0.480941
vt 0.572693 0.947028
vt 0.440988 0.414282
vt 0.537646 0.884286
vt 0.213896 0.412294
vt 0.780070 0.882712
vt 0.327416 0.413431
vt 0.658820 0.874048
vt 0.497456 0.455862
vt 0.567594 0.456476
vt 0.396451 0.897329
vt 0.465031 0.907848
vt 0.624698 0.415746
vt 0.347682 0.852148
vt 0.646956 0.349231
vt 0.333495 0.787555
vt 0.625866 0.282336
vt 0.354891 0.722665
vt 0.533470 0.348237
vt 0.448393 0.797976
vt 0.086620 0.452266
vt 0.156758 0.452880
vt 0.853593 0.905400
vt 0.922332 0.893399
vt 0.971978 0.718847
vt 0.009148 0.343648
vt 0.982405 0.782830
vt 0.960429 0.719033
vt 0.030238 0.410543
vt 0.969843 0.847090
vt 0.122634 0.344641
vt 0.867942 0.795257
vt 0.602094 0.474400
vt 0.444449 0.018814
vt 0.274018 0.028699
vt 0.766397 0.463054
vt 0.601196 0.485822
vt 0.546931 0.475290
vt 0.712414 0.485508
vt 0.766552 0.474286
vt 0.323034 0.637201
vt 0.334316 0.638157
vt 0.594333 0.069614
vt 0.464522 0.472118
vt 0.398006 0.515598
vt 0.467784 0.482949
vt 0.980435 0.634639
vt 0.991568 0.634374
vt 0.848739 0.469988
vt 0.017964 0.123159
vt 0.066658 0.064995
vt 0.845856 0.481061
vt 0.965997 0.567337
vt 0.642001 0.128621
vt 0.348332 0.570403
vt 0.915989 0.512860
vt 0.656754 0.488978
vt 0.656793 0.477771
vt 0.391582 0.506478
vt 0.338999 0.564238
vt 0.922372 0.503713
vt 0.975696 0.561281
vt 0.387564 0.029693
vt 0.546728 0.463906
vt 0.711471 0.474406
vt 0.217357 0.016826
vt 0.651585 0.200436
vt 0.007124 0.194795
vt 0.136777 0.028635
vt 0.031406 0.277132
vt 0.524861 0.032032
vt 0.343239 0.722589
vt 0.330739 0.033746
vt 0.979972 0.851805
vt 0.928673 0.902624
vt 0.993443 0.782483
vt 0.855309 0.916495
vt 0.784576 0.893381
vt 0.533542 0.895098
vt 0.464182 0.918758
vt 0.322258 0.788167
vt 0.338135 0.857996
vt 0.391157 0.907129
vt 0.753553 0.953532
vt 0.566177 0.956187
vt 0.625943 0.994348
vt 0.695751 0.993108
vt 0.656765 0.477787
vn 0.127695 -0.987473 -0.092694
vn 0.048757 -0.987474 -0.150059
vn 0.048757 0.987474 -0.150059
vn 0.127695 0.987473 -0.092694
vn -0.048757 -0.987474 -0.150059
vn -0.048757 0.987474 -0.150059
vn -0.127633 -0.987479 -0.092708
vn -0.127633 0.987479 -0.092708
vn -0.003244 -0.999946 -0.009894
vn -0.003244 0.999946 -0.009894
vn 0.003246 -0.999946 -0.009886
vn 0.003246 0.999946 -0.009886
vn 0.000000 -1.000000 -0.000000
vn 0.000000 1.000000 -0.000000
vn 0.048529 -0.987497 -0.149981
vn -0.048757 -0.987474 -0.150059
vn -0.048757 0.987474 -0.150059
vn 0.048529 0.987497 -0.149981
vn -0.127648 -0.987474 -0.092742
vn -0.127648 0.987474 -0.092742
vn -0.157781 -0.987474 0.000000
vn -0.157782 0.987474 0.000000
vn -0.069249 -0.997598 -0.001548
vn -0.069249 0.997598 -0.001548
vn 0.000000 -1.000000 -0.000000
vn 0.000000 1.000000 0.000000
vn 0.048757 -0.987474 -0.150059
vn -0.048555 -0.987493 -0.149999
vn -0.048555 0.987493 -0.149999
vn 0.048757 0.987474 -0.150059
vn 0.069249 -0.997598 -0.001548
vn 0.157781 -0.987474 0.000000
vn 0.157781 0.987474 0.000000
vn 0.069249 0.997598 -0.001548
vn 0.127648 -0.987474 -0.092742
vn 0.127648 0.987474 -0.092742
vn 0.000000 -1.000000 0.000000
vn 0.000000 1.000000 0.000000
vn 0.002333 -0.999859 0.016635
vn -0.000145 -0.999846 0.017567
vn -0.002334 -0.999859 0.016634
vn 0.000146 -0.999846 0.017567
vn 0.002333 0.999859 0.016635
vn -0.000145 0.999846 0.017567
vn -0.002334 0.999859 0.016634
vn 0.000146 0.999846 0.017567
vn -0.081912 -0.996608 -0.007874
vn -0.081912 0.996609 -0.007874
vn -0.039393 -0.998039 0.048636
vn -0.008588 -0.999623 0.026089
vn -0.039393 0.998039 0.048636
vn -0.008588 0.999623 0.026089
vn 0.081912 0.996608 -0.007874
vn 0.081912 -0.996608 -0.007874
vn 0.008592 -0.999623 0.026091
vn 0.068658 -0.997166 0.030766
vn 0.039393 -0.998039 0.048636
vn 0.008592 0.999623 0.026091
vn 0.068658 0.997166 0.030766
vn -0.068658 -0.997166 0.030766
vn -0.068658 0.997166 0.030766
vn 0.039393 0.998040 0.048636
vn 0.000000 0.999340 0.036332
vn 0.000000 -0.999340 0.036332
s 1
g rug_B
f 1/90/1 2/93/2 8/3/3 7/4/4
f 2/93/2 3/92/5 9/6/6 8/3/3
f 3/92/5 4/91/7 10/8/8 9/6/6
f 4/91/7 5/85/9 11/10/10 10/8/8
f 6/84/11 1/90/1 7/4/4 12/12/12
f 2/2/2 1/1/1 13/13/13
f 3/5/5 2/2/2 13/13/13
f 4/7/7 3/5/5 13/13/13
f 5/9/9 4/7/7 13/13/13
f 1/1/1 6/11/11 13/13/13
f 7/4/4 8/3/3 14/14/14
f 8/3/3 9/6/6 14/14/14
f 9/6/6 10/8/8 14/14/14
f 10/8/8 11/10/10 14/14/14
f 12/12/12 7/4/4 14/14/14
f 15/86/15 16/89/16 21/17/17 20/18/18
f 16/89/16 17/88/19 22/20/20 21/17/17
f 17/88/19 18/87/21 23/22/22 22/20/20
f 18/87/21 19/78/23 24/24/24 23/22/22
f 5/85/9 15/86/15 20/18/18 11/10/10
f 16/16/16 15/15/15 25/25/25
f 17/19/19 16/16/16 25/25/25
f 18/21/21 17/19/19 25/25/25
f 19/23/23 18/21/21 25/25/25
f 15/15/15 5/9/9 25/25/25
f 20/18/18 21/17/17 26/26/26
f 21/17/17 22/20/20 26/26/26
f 22/20/20 23/22/22 26/26/26
f 23/22/22 24/24/24 26/26/26
f 11/10/10 20/18/18 26/26/26
f 27/81/27 28/83/28 33/29/29 32/30/30
f 28/83/28 6/84/11 12/12/12 33/29/29
f 29/31/31 30/82/32 35/33/33 34/34/34
f 30/82/32 31/80/35 36/36/36 35/33/33
f 31/80/35 27/81/27 32/30/30 36/36/36
f 28/28/28 27/27/27 37/37/37
f 6/11/11 28/28/28 37/37/37
f 30/32/32 29/76/31 37/37/37
f 31/35/35 30/32/32 37/37/37
f 27/27/27 31/35/35 37/37/37
f 32/30/30 33/29/29 38/38/38
f 33/29/29 12/12/12 38/38/38
f 34/34/34 35/33/33 38/38/38
f 35/33/33 36/36/36 38/38/38
f 36/36/36 32/30/30 38/38/38
f 5/9/9 13/13/13 59/69/39 40/40/40
f 58/41/41 13/13/13 6/11/11 41/72/42
f 60/43/43 14/14/14 11/10/10 42/44/44
f 12/12/12 14/14/14 57/45/45 44/46/46
f 24/24/24 19/78/23 55/47/47 56/48/48
f 64/49/49 25/25/25 47/77/50
f 25/25/25 5/9/9 40/40/40 47/77/50
f 26/26/26 63/51/51 48/52/52
f 11/10/10 26/26/26 48/52/52 42/44/44
f 29/31/31 34/34/34 53/53/53 54/54/54
f 6/11/11 37/37/37 51/75/55 41/72/42
f 37/37/37 49/56/56 62/57/57
f 38/38/38 12/12/12 44/46/46 52/58/58
f 53/53/53 34/34/34 38/38/38 50/59/59
f 54/54/54 53/53/53 50/59/59 49/68/56
f 56/48/48 55/47/47 45/66/60 46/61/61
f 48/52/52 63/51/51 64/65/49 47/50/50
f 42/44/44 48/52/52 47/50/50 40/70/40
f 59/39/39 60/43/43 42/44/44 40/70/40
f 44/46/46 57/45/45 58/71/41 41/42/42
f 52/58/58 44/46/46 41/42/42 51/55/55
f 50/59/59 61/62/62 62/67/57 49/68/56
f 57/45/45 14/14/14 43/63/63
f 58/71/41 57/45/45 43/63/63 39/64/64
f 13/13/13 58/41/41 39/79/64
f 59/69/39 13/13/13 39/79/64
f 43/63/63 60/43/43 59/39/39 39/94/64
f 14/14/14 60/43/43 43/63/63
f 61/62/62 38/38/38 52/58/58
f 62/67/57 61/62/62 52/58/58 51/55/55
f 37/37/37 62/57/57 51/75/55
f 26/26/26 46/61/61 63/51/51
f 64/65/49 63/51/51 46/61/61 45/66/60
f 55/73/47 19/23/23 25/25/25 45/60/60
f 50/59/59 38/38/38 61/62/62
f 26/26/26 24/24/24 56/48/48 46/61/61
f 37/37/37 29/76/31 54/74/54 49/56/56
f 45/60/60 25/25/25 64/49/49
