# This file uses meters as units for non-parametric coordinates.

g default
v -125.788246 -0.008434 59.598995
v -88.402588 -0.008434 12.178585
v -28.862789 -0.008434 58.580376
v 62.910213 -0.008434 63.277943
v 127.669800 -0.008434 11.511018
v -125.788246 2.041378 59.598995
v -88.402588 2.041378 12.178585
v -28.862789 2.041378 58.580376
v 62.910213 2.041378 63.277943
v 127.669800 2.041378 11.511018
v -125.788246 2.041378 -59.598995
v -88.402588 2.041378 -12.178585
v -28.862789 2.041378 -58.580376
v 62.910213 2.041378 -63.277943
v 127.669800 2.041378 -11.511018
v -125.788246 -0.008434 -59.598995
v -88.402588 -0.008434 -12.178585
v -28.862789 -0.008434 -58.580376
v 62.910213 -0.008434 -63.277943
v 127.669800 -0.008434 -11.511018
v -58.567890 2.041378 -40.535145
v -58.567890 -0.008434 -40.535145
v -58.567890 -0.008434 40.535145
v -58.567890 2.041378 40.535145
v 13.771009 2.041378 -66.535233
v 13.771009 -0.008434 -66.535233
v 13.771009 -0.008434 66.535233
v 13.771009 2.041378 66.535233
v 97.598801 2.041378 -47.644939
v 97.598801 -0.008434 -47.644939
v 97.598801 -0.008434 47.644939
v 97.598801 2.041378 47.644939
v -128.375702 2.041378 -54.872177
v -128.375702 -0.008434 -54.872177
v -128.375702 2.041378 56.105259
v -128.375702 -0.008434 56.105255
v -88.402588 2.041378 -7.307151
v -88.402588 2.041378 8.281437
v -58.567890 2.041378 -32.428116
v -28.862789 2.041378 -46.864296
v 13.771009 2.041378 -53.228184
v 62.910213 2.041378 -50.622360
v 97.598801 2.041378 -38.115952
v -58.567890 2.041378 33.238819
v -28.862789 2.041378 48.035908
v 13.771009 2.041378 54.558891
v 62.910213 2.041378 51.887913
v 97.598801 2.041378 39.068855
v 122.390427 2.041378 -9.104996
v 122.390427 2.041378 9.207277
v -88.402588 -0.008434 7.307151
v -88.402588 -0.008434 -8.281437
v -58.567890 -0.008434 32.428116
v -28.862789 -0.008434 46.864296
v 13.771009 -0.008434 53.228184
v 62.910213 -0.008434 50.622360
v 97.598801 -0.008434 38.115952
v -58.567890 -0.008434 -33.238819
v -28.862789 -0.008434 -48.035908
v 13.771009 -0.008434 -54.558891
v 62.910213 -0.008434 -51.887913
v 97.598801 -0.008434 -39.068855
v 122.390427 -0.008434 9.104996
v 122.390427 -0.008434 -9.207277
vt 0.033559 0.534612
vt 0.824710 0.234900
vt 0.174083 0.680987
vt 0.029796 0.545404
vt 0.711513 0.149432
vt 0.290136 0.595792
vt 0.599252 0.095617
vt 0.438918 0.073473
vt 0.564392 0.518794
vt 0.403581 0.542549
vt 0.254662 0.086102
vt 0.125175 0.135955
vt 0.876790 0.582089
vt 0.748503 0.531493
vt 0.019274 0.553978
vt 0.174495 0.693439
vt 0.171767 0.744870
vt 0.287786 0.821171
vt 0.289647 0.846381
vt 0.171810 0.760384
vt 0.399023 0.865624
vt 0.559013 0.888008
vt 0.559568 0.929080
vt 0.399897 0.901819
vt 0.744677 0.880952
vt 0.875692 0.841808
vt 0.876536 0.870767
vt 0.745753 0.919755
vt 0.031804 0.896189
vt 0.825776 0.309683
vt 0.968143 0.453278
vt 0.715060 0.398341
vt 0.444740 0.482037
vt 0.604379 0.455334
vt 0.129344 0.428522
vt 0.260200 0.474664
vt 0.972790 0.097894
vt 0.824923 0.249856
vt 0.711867 0.174323
vt 0.599765 0.131589
vt 0.439500 0.114330
vt 0.255216 0.124958
vt 0.125592 0.165211
vt 0.013912 0.248504
vt 0.014920 0.319188
vt 0.987747 0.759951
vt 0.986775 0.692400
vt 0.033829 0.255609
vt 0.967856 0.753159
vt 0.977646 0.438627
vt 0.020402 0.885053
vt 0.288367 0.618378
vt 0.402128 0.575113
vt 0.563207 0.555749
vt 0.746845 0.566388
vt 0.875642 0.608019
vt 0.967036 0.699081
vt 0.825605 0.297718
vt 0.714740 0.375939
vt 0.603917 0.422959
vt 0.444216 0.445267
vt 0.259701 0.439694
vt 0.128969 0.402191
vt 0.034630 0.311833
vt 0.007334 0.553608
vt 0.962927 0.087306
vt 0.016325 0.898922
vt 0.883867 0.572373
vt 0.997218 0.687508
vt 0.883469 0.880480
vt 0.998485 0.764634
vt 0.564240 0.506793
vt 0.751376 0.519990
vt 0.559174 0.941025
vt 0.748435 0.931384
vt 0.284917 0.585249
vt 0.400644 0.531067
vt 0.284407 0.857099
vt 0.396723 0.913300
vt 0.035762 0.906830
vt 0.173371 0.772032
vt 0.175378 0.669152
vt 0.016625 0.539779
vt 0.008434 0.884708
vn 0.404856 -0.836875 0.368417
vn 0.059575 -0.975870 0.210066
vn 0.066498 0.969845 0.234477
vn 0.430713 0.812935 0.391947
vn -0.182835 -0.954742 0.234603
vn -0.202592 0.944129 0.259954
vn -0.066308 -0.980596 0.184486
vn -0.008769 -0.985177 0.171317
vn -0.009710 0.981794 0.189699
vn -0.073346 0.976206 0.204066
vn 0.040247 -0.983098 0.178602
vn 0.170472 -0.962009 0.213258
vn 0.186165 0.954518 0.232890
vn 0.044544 0.979256 0.197671
vn -0.170431 0.985362 0.003852
vn 0.000000 1.000000 0.000000
vn 0.000000 1.000000 0.000000
vn 0.000000 1.000000 0.000000
vn -0.182835 0.954742 -0.234603
vn 0.056519 0.978310 -0.199289
vn 0.000000 1.000000 0.000000
vn 0.000000 1.000000 0.000000
vn -0.008769 0.985177 -0.171317
vn -0.066308 0.980596 -0.184486
vn 0.000000 1.000000 0.000000
vn 0.000000 1.000000 0.000000
vn 0.170472 0.962009 -0.213258
vn 0.040247 0.983098 -0.178602
vn 0.398821 0.837561 -0.373408
vn 0.062733 -0.973209 -0.221200
vn 0.421854 -0.816110 -0.394973
vn -0.202592 -0.944129 -0.259954
vn -0.009710 -0.981794 -0.189699
vn -0.073346 -0.976206 -0.204066
vn 0.186165 -0.954518 -0.232890
vn 0.044544 -0.979256 -0.197671
vn -0.169476 -0.985527 0.003831
vn 0.000000 -1.000000 0.000000
vn 0.000000 -1.000000 0.000000
vn 0.000000 -1.000000 0.000000
vn 0.000000 -1.000000 0.000000
vn 0.000000 -1.000000 0.000000
vn 0.000000 -1.000000 0.000000
vn 0.382084 -0.903486 0.194227
vn 0.395999 -0.895914 -0.201300
vn 0.382084 0.903486 -0.194227
vn 0.395999 0.895914 0.201300
vn 0.000000 -1.000000 0.000000
vn 0.000000 1.000000 0.000000
vn -0.164534 -0.986364 -0.003679
vn -0.163515 0.986534 -0.003657
vn 0.000000 1.000000 0.000000
vn 0.000000 1.000000 0.000000
vn 0.000000 1.000000 0.000000
vn 0.000000 1.000000 0.000000
vn 0.000000 1.000000 0.000000
vn 0.000000 1.000000 0.000000
vn 0.000000 -1.000000 0.000000
vn 0.000000 -1.000000 0.000000
vn 0.000000 -1.000000 0.000000
vn 0.000000 -1.000000 0.000000
vn 0.000000 -1.000000 0.000000
vn 0.000000 -1.000000 0.000000
vn 0.000000 -1.000000 0.000000
s 1
g rug_C
f 1/1/1 2/82/2 7/3/3 6/4/4
f 2/82/2 23/76/5 24/6/6 7/3/3
f 3/77/7 27/72/8 28/9/9 8/10/10
f 4/73/11 31/68/12 32/13/13 9/14/14
f 35/15/15 6/4/4 7/3/3 38/16/16
f 37/17/17 39/18/18 21/19/19 12/20/20
f 40/21/21 41/22/22 25/23/23 13/24/24
f 42/25/25 43/26/26 29/27/27 14/28/28
f 11/29/29 12/20/20 17/81/30 16/80/31
f 12/20/20 21/19/19 22/78/32 17/81/30
f 13/24/24 25/23/23 26/74/33 18/79/34
f 14/28/28 29/27/27 30/70/35 19/75/36
f 2/2/2 1/66/1 36/37/37 51/38/38
f 51/38/38 53/39/39 23/5/5 2/2/2
f 54/40/40 55/41/41 27/8/8 3/7/7
f 56/42/42 57/43/43 31/12/12 4/11/11
f 5/69/44 20/71/45 15/46/46 10/47/47
f 35/15/15 36/83/37 1/1/1 6/4/4
f 21/19/19 13/24/24 18/79/34 22/78/32
f 23/5/5 53/39/39 54/40/40 3/7/7
f 24/6/6 23/76/5 3/77/7 8/10/10
f 21/19/19 39/18/18 40/21/21 13/24/24
f 25/23/23 14/28/28 19/75/36 26/74/33
f 27/8/8 55/41/41 56/42/42 4/11/11
f 28/9/9 27/72/8 4/73/11 9/14/14
f 25/23/23 41/22/22 42/25/25 14/28/28
f 29/27/27 15/46/46 20/71/45 30/70/35
f 31/12/12 57/43/43 63/48/48 5/44/44
f 32/13/13 31/68/12 5/69/44 10/47/47
f 29/27/27 43/26/26 49/49/49 15/46/46
f 16/80/31 34/67/50 33/51/51 11/29/29
f 33/51/51 37/17/17 12/20/20 11/29/29
f 33/51/51 34/84/50 36/65/37 35/15/15
f 35/15/15 38/16/16 37/17/17 33/51/51
f 38/16/16 44/52/52 39/18/18 37/17/17
f 40/21/21 39/18/18 44/52/52 45/53/53
f 45/53/53 46/54/54 41/22/22 40/21/21
f 42/25/25 41/22/22 46/54/54 47/55/55
f 47/55/55 48/56/56 43/26/26 42/25/25
f 15/46/46 49/49/49 50/57/57 10/47/47
f 7/3/3 24/6/6 44/52/52 38/16/16
f 45/53/53 44/52/52 24/6/6 8/10/10
f 8/10/10 28/9/9 46/54/54 45/53/53
f 47/55/55 46/54/54 28/9/9 9/14/14
f 9/14/14 32/13/13 48/56/56 47/55/55
f 10/47/47 50/57/57 48/56/56 32/13/13
f 50/57/57 49/49/49 43/26/26 48/56/56
f 34/50/50 52/58/58 51/38/38 36/37/37
f 17/30/30 52/58/58 34/50/50 16/31/31
f 52/58/58 58/59/59 53/39/39 51/38/38
f 54/40/40 53/39/39 58/59/59 59/60/60
f 59/60/60 60/61/61 55/41/41 54/40/40
f 56/42/42 55/41/41 60/61/61 61/62/62
f 61/62/62 62/63/63 57/43/43 56/42/42
f 5/44/44 63/48/48 64/64/64 20/45/45
f 17/30/30 22/32/32 58/59/59 52/58/58
f 59/60/60 58/59/59 22/32/32 18/34/34
f 18/34/34 26/33/33 60/61/61 59/60/60
f 61/62/62 60/61/61 26/33/33 19/36/36
f 19/36/36 30/35/35 62/63/63 61/62/62
f 20/45/45 64/64/64 62/63/63 30/35/35
f 64/64/64 63/48/48 57/43/43 62/63/63
