# This file uses centimeters as units for non-parametric coordinates.

mtllib IceCream_Full.mtl
g default
v -176.440624 0.000000 -3.268974
v -181.063653 0.000001 -7.892001
v -187.601601 0.000001 -7.892002
v -192.224627 0.000000 -3.268974
v -192.224628 -0.000000 3.268975
v -187.601599 -0.000001 7.892002
v -181.063652 -0.000001 7.892002
v -176.440625 -0.000000 3.268975
v -175.093831 10.531886 -3.826833
v -180.505792 10.531887 -9.238794
v -188.159461 10.531887 -9.238794
v -193.571421 10.531886 -3.826833
v -193.571422 10.531886 3.826836
v -188.159459 10.531885 9.238797
v -180.505792 10.531885 9.238797
v -175.093831 10.531886 3.826837
v -174.378748 10.999394 -4.123030
v -180.209595 10.999395 -9.953877
v -188.455658 10.999395 -9.953878
v -194.286504 10.999394 -4.123030
v -194.286505 10.999393 4.123033
v -188.455656 10.999392 9.953879
v -180.209595 10.999392 9.953880
v -174.378749 10.999393 4.123034
v -174.378748 11.862298 -4.123030
v -180.209595 11.862299 -9.953877
v -188.455658 11.862299 -9.953878
v -194.286504 11.862298 -4.123030
v -194.286505 11.862298 4.123034
v -188.455656 11.862297 9.953879
v -180.209595 11.862297 9.953880
v -174.378749 11.862298 4.123034
v -174.282443 11.430846 -4.162921
v -180.169704 11.430847 -10.050183
v -188.495550 11.430847 -10.050184
v -194.382810 11.430846 -4.162922
v -194.382811 11.430846 4.162925
v -188.495548 11.430845 10.050185
v -180.169704 11.430845 10.050185
v -174.282442 11.430846 4.162925
v -175.355738 12.343685 -3.718348
v -180.614277 12.343686 -8.976886
v -188.050975 12.343687 -8.976885
v -193.309513 12.343685 -3.718347
v -193.309512 12.343685 3.718350
v -188.050971 12.343685 8.976887
v -180.614276 12.343684 8.976890
v -175.355738 12.343685 3.718352
v -177.216010 15.771332 -5.171030
v -182.956890 15.771332 -8.688677
v -189.503656 15.771333 -7.116611
v -193.021304 15.771332 -1.375733
v -191.449239 15.771332 5.171035
v -185.708358 15.771331 8.688681
v -179.161593 15.771331 7.116619
v -175.643946 15.771332 1.375738
v -180.806401 19.631135 -5.726557
v -185.871231 19.631135 -6.559973
v -190.030975 19.631132 -3.541486
v -190.875335 19.631134 1.496925
v -187.872325 19.631133 5.694038
v -182.818437 19.631129 6.501030
v -178.647749 19.631135 3.508965
v -177.814335 19.631130 -1.555866
v -184.166038 22.421215 -3.287714
v -186.539598 22.421217 -2.442560
v -187.620343 22.421217 -0.166585
v -186.775189 22.421217 2.206976
v -184.499213 22.421219 3.287722
v -182.125652 22.421217 2.442567
v -181.044907 22.421217 0.166593
v -181.890061 22.421217 -2.206968
v -184.332625 23.799271 0.000004
vt 0.731446 0.692360
vt 0.857348 0.692179
vt 0.857348 0.894693
vt 0.731446 0.894693
vt 0.984490 0.692772
vt 0.984490 0.894458
vt 0.138291 0.692360
vt 0.138291 0.894693
vt 0.256922 0.692360
vt 0.256922 0.894693
vt 0.387416 0.692360
vt 0.387416 0.894693
vt 0.494184 0.692360
vt 0.494184 0.894693
vt 0.612815 0.692360
vt 0.612815 0.894693
vt 0.857348 0.917653
vt 0.731446 0.917653
vt 0.984490 0.917616
vt 0.138291 0.917653
vt 0.256922 0.917653
vt 0.387416 0.917653
vt 0.494184 0.917653
vt 0.612815 0.917653
vt 0.857348 0.936217
vt 0.731446 0.936200
vt 0.984490 0.936263
vt 0.138291 0.936200
vt 0.256922 0.936200
vt 0.387416 0.936200
vt 0.494184 0.936200
vt 0.612815 0.936200
vt 0.731446 0.955493
vt 0.857348 0.955722
vt 0.857348 0.976972
vt 0.731446 0.977071
vt 0.984490 0.955785
vt 0.984490 0.977134
vt 0.138291 0.955493
vt 0.138291 0.977071
vt 0.256922 0.955493
vt 0.256922 0.977071
vt 0.387416 0.955493
vt 0.387416 0.977071
vt 0.494184 0.955493
vt 0.494184 0.977071
vt 0.612815 0.955493
vt 0.612815 0.977071
vt 0.415865 0.420831
vt 0.356046 0.276416
vt 0.211632 0.216597
vt 0.019659 0.692360
vt 0.019659 0.894693
vt 0.067217 0.276416
vt 0.007398 0.420831
vt 0.067217 0.565246
vt 0.211632 0.625064
vt 0.356046 0.565246
vt 0.019659 0.917653
vt 0.019659 0.936200
vt 0.019659 0.955493
vt 0.019659 0.977071
vt 0.943685 0.541781
vt 0.893087 0.614421
vt 0.786464 0.652392
vt 0.829955 0.561759
vt 0.318296 0.065005
vt 0.395594 0.139030
vt 0.465973 0.012162
vt 0.518562 0.113949
vt 0.635059 0.012995
vt 0.648161 0.133550
vt 0.802929 0.081216
vt 0.765065 0.203403
vt 0.938032 0.222096
vt 0.844622 0.317736
vt 0.995228 0.428075
vt 0.863613 0.445789
vt 0.625868 0.622924
vt 0.697120 0.552342
vt 0.474254 0.241830
vt 0.558933 0.240039
vt 0.638600 0.269039
vt 0.699523 0.325595
vt 0.731742 0.399652
vt 0.730337 0.477205
vt 0.528534 0.537839
vt 0.579872 0.518842
vt 0.520876 0.337340
vt 0.566616 0.344928
vt 0.603137 0.368635
vt 0.625588 0.403722
vt 0.630346 0.444462
vt 0.615196 0.485044
vt 0.526363 0.435265
vt 0.206096 0.152183
vt 0.292063 0.196162
vt 0.392052 0.270865
vt 0.471217 0.349267
vn 0.676412 -0.681152 -0.280179
vn 0.280179 -0.681151 -0.676412
vn 0.304838 -0.604534 -0.735943
vn 0.304838 -0.604534 -0.735943
vn 0.735943 -0.604534 -0.304838
vn 0.676412 -0.681152 -0.280179
vn 0.280179 -0.681151 -0.676412
vn -0.280179 -0.681151 -0.676412
vn -0.304838 -0.604534 -0.735943
vn -0.304838 -0.604534 -0.735943
vn 0.304838 -0.604534 -0.735943
vn 0.280179 -0.681151 -0.676412
vn -0.280179 -0.681151 -0.676412
vn -0.676412 -0.681151 -0.280179
vn -0.735943 -0.604534 -0.304838
vn -0.735943 -0.604534 -0.304838
vn -0.304838 -0.604534 -0.735943
vn -0.280179 -0.681151 -0.676412
vn -0.676412 -0.681151 -0.280179
vn -0.676411 -0.681152 0.280179
vn -0.735943 -0.604534 0.304838
vn -0.735943 -0.604534 0.304838
vn -0.735943 -0.604534 -0.304838
vn -0.676412 -0.681151 -0.280179
vn -0.676411 -0.681152 0.280179
vn -0.280179 -0.681152 0.676411
vn -0.304838 -0.604534 0.735944
vn -0.304838 -0.604534 0.735944
vn -0.735943 -0.604534 0.304838
vn -0.676411 -0.681152 0.280179
vn -0.280179 -0.681152 0.676411
vn 0.280179 -0.681152 0.676411
vn 0.304838 -0.604534 0.735943
vn 0.304838 -0.604534 0.735943
vn -0.304838 -0.604534 0.735944
vn -0.280179 -0.681152 0.676411
vn 0.280179 -0.681152 0.676411
vn 0.676412 -0.681152 0.280179
vn 0.735944 -0.604534 0.304838
vn 0.735944 -0.604534 0.304838
vn 0.304838 -0.604534 0.735943
vn 0.280179 -0.681152 0.676411
vn 0.676412 -0.681152 0.280179
vn 0.676412 -0.681152 -0.280179
vn 0.735943 -0.604534 -0.304838
vn 0.735943 -0.604534 -0.304838
vn 0.735944 -0.604534 0.304838
vn 0.676412 -0.681152 0.280179
vn 0.280179 -0.681152 0.676411
vn -0.280179 -0.681152 0.676411
vn -0.676411 -0.681152 0.280179
vn -0.676411 -0.681152 0.280179
vn -0.676412 -0.681151 -0.280179
vn -0.280179 -0.681151 -0.676412
vn -0.280179 -0.681151 -0.676412
vn 0.280179 -0.681151 -0.676412
vn 0.676412 -0.681152 -0.280179
vn -0.676411 -0.681152 0.280179
vn -0.280179 -0.681151 -0.676412
vn 0.676412 -0.681152 -0.280179
vn 0.280179 -0.681152 0.676411
vn -0.676411 -0.681152 0.280179
vn 0.676412 -0.681152 -0.280179
vn 0.676412 -0.681152 0.280179
vn 0.280179 -0.681152 0.676411
vn 0.676412 -0.681152 -0.280179
vn 0.735943 -0.604534 -0.304838
vn 0.304838 -0.604534 -0.735943
vn 0.319661 -0.549772 -0.771730
vn 0.319661 -0.549772 -0.771730
vn 0.771731 -0.549771 -0.319661
vn 0.735943 -0.604534 -0.304838
vn 0.304838 -0.604534 -0.735943
vn -0.304838 -0.604534 -0.735943
vn -0.319661 -0.549772 -0.771730
vn -0.319661 -0.549772 -0.771730
vn 0.319661 -0.549772 -0.771730
vn 0.304838 -0.604534 -0.735943
vn -0.304838 -0.604534 -0.735943
vn -0.735943 -0.604534 -0.304838
vn -0.771730 -0.549772 -0.319661
vn -0.771730 -0.549772 -0.319661
vn -0.319661 -0.549772 -0.771730
vn -0.304838 -0.604534 -0.735943
vn -0.735943 -0.604534 -0.304838
vn -0.735943 -0.604534 0.304838
vn -0.771730 -0.549772 0.319661
vn -0.771730 -0.549772 0.319661
vn -0.771730 -0.549772 -0.319661
vn -0.735943 -0.604534 -0.304838
vn -0.735943 -0.604534 0.304838
vn -0.304838 -0.604534 0.735944
vn -0.319661 -0.549772 0.771730
vn -0.319661 -0.549772 0.771730
vn -0.771730 -0.549772 0.319661
vn -0.735943 -0.604534 0.304838
vn -0.304838 -0.604534 0.735944
vn 0.304838 -0.604534 0.735943
vn 0.319661 -0.549771 0.771731
vn 0.319661 -0.549771 0.771731
vn -0.319661 -0.549772 0.771730
vn -0.304838 -0.604534 0.735944
vn 0.304838 -0.604534 0.735943
vn 0.735944 -0.604534 0.304838
vn 0.771730 -0.549772 0.319661
vn 0.771730 -0.549772 0.319661
vn 0.319661 -0.549771 0.771731
vn 0.304838 -0.604534 0.735943
vn 0.735944 -0.604534 0.304838
vn 0.735943 -0.604534 -0.304838
vn 0.771731 -0.549771 -0.319661
vn 0.771731 -0.549771 -0.319661
vn 0.771730 -0.549772 0.319661
vn 0.735944 -0.604534 0.304838
vn 0.319661 -0.549772 -0.771730
vn 0.382684 0.000000 -0.923879
vn 0.923880 0.000000 -0.382684
vn 0.923880 0.000000 -0.382684
vn 0.771731 -0.549771 -0.319661
vn 0.319661 -0.549772 -0.771730
vn -0.319661 -0.549772 -0.771730
vn -0.382684 0.000000 -0.923880
vn 0.382684 0.000000 -0.923879
vn 0.382684 0.000000 -0.923879
vn 0.319661 -0.549772 -0.771730
vn -0.319661 -0.549772 -0.771730
vn -0.771730 -0.549772 -0.319661
vn -0.923879 0.000000 -0.382684
vn -0.382684 0.000000 -0.923880
vn -0.382684 0.000000 -0.923880
vn -0.319661 -0.549772 -0.771730
vn -0.771730 -0.549772 -0.319661
vn -0.771730 -0.549772 0.319661
vn -0.923879 0.000000 0.382684
vn -0.923879 0.000000 -0.382684
vn -0.923879 0.000000 -0.382684
vn -0.771730 -0.549772 -0.319661
vn -0.771730 -0.549772 0.319661
vn -0.319661 -0.549772 0.771730
vn -0.382684 0.000000 0.923880
vn -0.923879 0.000000 0.382684
vn -0.923879 0.000000 0.382684
vn -0.771730 -0.549772 0.319661
vn -0.319661 -0.549772 0.771730
vn 0.319661 -0.549771 0.771731
vn 0.382684 0.000000 0.923880
vn -0.382684 0.000000 0.923880
vn -0.382684 0.000000 0.923880
vn -0.319661 -0.549772 0.771730
vn 0.319661 -0.549771 0.771731
vn 0.771730 -0.549772 0.319661
vn 0.923880 0.000000 0.382683
vn 0.382684 0.000000 0.923880
vn 0.382684 0.000000 0.923880
vn 0.319661 -0.549771 0.771731
vn 0.771730 -0.549772 0.319661
vn 0.771731 -0.549771 -0.319661
vn 0.923880 0.000000 -0.382684
vn 0.923880 0.000000 0.382683
vn 0.923880 0.000000 0.382683
vn 0.771730 -0.549772 0.319661
vn 0.771731 -0.549771 -0.319661
vn 0.746856 0.588645 -0.309358
vn 0.309358 0.588646 -0.746856
vn 0.283291 0.695497 -0.660326
vn 0.283291 0.695497 -0.660326
vn 0.667238 0.695497 -0.266605
vn 0.746856 0.588645 -0.309358
vn 0.309358 0.588646 -0.746856
vn -0.309358 0.588646 -0.746856
vn -0.266604 0.695497 -0.667237
vn -0.266604 0.695497 -0.667237
vn 0.283291 0.695497 -0.660326
vn 0.309358 0.588646 -0.746856
vn -0.309358 0.588646 -0.746856
vn -0.746856 0.588646 -0.309357
vn -0.660326 0.695497 -0.283290
vn -0.660326 0.695497 -0.283290
vn -0.266604 0.695497 -0.667237
vn -0.309358 0.588646 -0.746856
vn -0.746856 0.588646 -0.309357
vn -0.746855 0.588647 0.309358
vn -0.667237 0.695497 0.266605
vn -0.667237 0.695497 0.266605
vn -0.660326 0.695497 -0.283290
vn -0.746856 0.588646 -0.309357
vn -0.746855 0.588647 0.309358
vn -0.309358 0.588646 0.746856
vn -0.283290 0.695497 0.660326
vn -0.283290 0.695497 0.660326
vn -0.667237 0.695497 0.266605
vn -0.746855 0.588647 0.309358
vn -0.309358 0.588646 0.746856
vn 0.309358 0.588645 0.746857
vn 0.266605 0.695496 0.667238
vn 0.266605 0.695496 0.667238
vn -0.283290 0.695497 0.660326
vn -0.309358 0.588646 0.746856
vn 0.309358 0.588645 0.746857
vn 0.746855 0.588647 0.309358
vn 0.660327 0.695496 0.283291
vn 0.660327 0.695496 0.283291
vn 0.266605 0.695496 0.667238
vn 0.309358 0.588645 0.746857
vn 0.746855 0.588647 0.309358
vn 0.746856 0.588645 -0.309358
vn 0.667238 0.695497 -0.266605
vn 0.667238 0.695497 -0.266605
vn 0.660327 0.695496 0.283291
vn 0.746855 0.588647 0.309358
vn 0.309358 0.588646 -0.746856
vn 0.746856 0.588645 -0.309358
vn 0.923880 0.000000 -0.382684
vn 0.923880 0.000000 -0.382684
vn 0.382684 0.000000 -0.923879
vn 0.309358 0.588646 -0.746856
vn -0.309358 0.588646 -0.746856
vn 0.309358 0.588646 -0.746856
vn 0.382684 0.000000 -0.923879
vn 0.382684 0.000000 -0.923879
vn -0.382684 0.000000 -0.923880
vn -0.309358 0.588646 -0.746856
vn -0.746856 0.588646 -0.309357
vn -0.309358 0.588646 -0.746856
vn -0.382684 0.000000 -0.923880
vn -0.382684 0.000000 -0.923880
vn -0.923879 0.000000 -0.382684
vn -0.746856 0.588646 -0.309357
vn -0.746855 0.588647 0.309358
vn -0.746856 0.588646 -0.309357
vn -0.923879 0.000000 -0.382684
vn -0.923879 0.000000 -0.382684
vn -0.923879 0.000000 0.382684
vn -0.746855 0.588647 0.309358
vn -0.309358 0.588646 0.746856
vn -0.746855 0.588647 0.309358
vn -0.923879 0.000000 0.382684
vn -0.923879 0.000000 0.382684
vn -0.382684 0.000000 0.923880
vn -0.309358 0.588646 0.746856
vn 0.309358 0.588645 0.746857
vn -0.309358 0.588646 0.746856
vn -0.382684 0.000000 0.923880
vn -0.382684 0.000000 0.923880
vn 0.382684 0.000000 0.923880
vn 0.309358 0.588645 0.746857
vn 0.746855 0.588647 0.309358
vn 0.309358 0.588645 0.746857
vn 0.382684 0.000000 0.923880
vn 0.382684 0.000000 0.923880
vn 0.923880 0.000000 0.382683
vn 0.746855 0.588647 0.309358
vn 0.746856 0.588645 -0.309358
vn 0.746855 0.588647 0.309358
vn 0.923880 0.000000 0.382683
vn 0.923880 0.000000 0.382683
vn 0.923880 0.000000 -0.382684
vn 0.746856 0.588645 -0.309358
vn 0.283291 0.695497 -0.660326
vn 0.132859 0.344204 -0.929447
vn 0.750790 0.345882 -0.562744
vn 0.750790 0.345882 -0.562744
vn 0.667238 0.695497 -0.266605
vn 0.283291 0.695497 -0.660326
vn -0.266604 0.695497 -0.667237
vn -0.563863 0.345019 -0.750347
vn 0.132859 0.344204 -0.929447
vn 0.132859 0.344204 -0.929447
vn 0.283291 0.695497 -0.660326
vn -0.266604 0.695497 -0.667237
vn -0.660326 0.695497 -0.283290
vn -0.928860 0.345881 -0.132614
vn -0.563863 0.345019 -0.750347
vn -0.563863 0.345019 -0.750347
vn -0.266604 0.695497 -0.667237
vn -0.660326 0.695497 -0.283290
vn -0.667237 0.695497 0.266605
vn -0.750209 0.346659 0.563040
vn -0.928860 0.345881 -0.132614
vn -0.928860 0.345881 -0.132614
vn -0.660326 0.695497 -0.283290
vn -0.667237 0.695497 0.266605
vn -0.283290 0.695497 0.660326
vn -0.131689 0.347872 0.928247
vn -0.750209 0.346659 0.563040
vn -0.750209 0.346659 0.563040
vn -0.667237 0.695497 0.266605
vn -0.283290 0.695497 0.660326
vn 0.266605 0.695496 0.667238
vn 0.562342 0.349109 0.749596
vn -0.131689 0.347872 0.928247
vn -0.131689 0.347872 0.928247
vn -0.283290 0.695497 0.660326
vn 0.266605 0.695496 0.667238
vn 0.660327 0.695496 0.283291
vn 0.928077 0.347912 0.132780
vn 0.562342 0.349109 0.749596
vn 0.562342 0.349109 0.749596
vn 0.266605 0.695496 0.667238
vn 0.660327 0.695496 0.283291
vn 0.667238 0.695497 -0.266605
vn 0.750790 0.345882 -0.562744
vn 0.928077 0.347912 0.132780
vn 0.928077 0.347912 0.132780
vn 0.660327 0.695496 0.283291
vn 0.667238 0.695497 -0.266605
vn 0.132859 0.344204 -0.929447
vn -0.181568 0.615012 -0.767329
vn 0.414626 0.615382 -0.670366
vn 0.414626 0.615382 -0.670366
vn 0.750790 0.345882 -0.562744
vn 0.132859 0.344204 -0.929447
vn -0.563863 0.345019 -0.750347
vn -0.670039 0.615719 -0.414653
vn -0.181568 0.615012 -0.767329
vn -0.181568 0.615012 -0.767329
vn 0.132859 0.344204 -0.929447
vn -0.563863 0.345019 -0.750347
vn -0.928860 0.345881 -0.132614
vn -0.767365 0.616041 0.177889
vn -0.670039 0.615719 -0.414653
vn -0.670039 0.615719 -0.414653
vn -0.563863 0.345019 -0.750347
vn -0.928860 0.345881 -0.132614
vn -0.750209 0.346659 0.563040
vn -0.414231 0.616463 0.669617
vn -0.767365 0.616041 0.177889
vn -0.767365 0.616041 0.177889
vn -0.928860 0.345881 -0.132614
vn -0.750209 0.346659 0.563040
vn -0.131689 0.347872 0.928247
vn 0.180754 0.617258 0.765716
vn -0.414231 0.616463 0.669617
vn -0.414231 0.616463 0.669617
vn -0.750209 0.346659 0.563040
vn -0.131689 0.347872 0.928247
vn 0.562342 0.349109 0.749596
vn 0.669009 0.617241 0.414053
vn 0.180754 0.617258 0.765716
vn 0.180754 0.617258 0.765716
vn -0.131689 0.347872 0.928247
vn 0.562342 0.349109 0.749596
vn 0.928077 0.347912 0.132780
vn 0.766403 0.616382 -0.180830
vn 0.669009 0.617241 0.414053
vn 0.669009 0.617241 0.414053
vn 0.562342 0.349109 0.749596
vn 0.928077 0.347912 0.132780
vn 0.750790 0.345882 -0.562744
vn 0.414626 0.615382 -0.670366
vn 0.766403 0.616382 -0.180830
vn 0.766403 0.616382 -0.180830
vn 0.928077 0.347912 0.132780
vn 0.750790 0.345882 -0.562744
vn -0.181568 0.615012 -0.767329
vn -0.352257 0.849609 -0.392530
vn 0.029575 0.850195 -0.525636
vn 0.029575 0.850195 -0.525636
vn 0.414626 0.615382 -0.670366
vn -0.181568 0.615012 -0.767329
vn -0.670039 0.615719 -0.414653
vn -0.527171 0.849250 -0.029406
vn -0.352257 0.849609 -0.392530
vn -0.352257 0.849609 -0.392530
vn -0.181568 0.615012 -0.767329
vn -0.670039 0.615719 -0.414653
vn -0.767365 0.616041 0.177889
vn -0.394076 0.848803 0.352475
vn -0.527171 0.849250 -0.029406
vn -0.527171 0.849250 -0.029406
vn -0.670039 0.615719 -0.414653
vn -0.767365 0.616041 0.177889
vn -0.414231 0.616463 0.669617
vn -0.028625 0.848090 0.529078
vn -0.394076 0.848803 0.352475
vn -0.394076 0.848803 0.352475
vn -0.767365 0.616041 0.177889
vn -0.414231 0.616463 0.669617
vn 0.180754 0.617258 0.765716
vn 0.353576 0.847561 0.395759
vn -0.028625 0.848090 0.529078
vn -0.028625 0.848090 0.529078
vn -0.414231 0.616463 0.669617
vn 0.180754 0.617258 0.765716
vn 0.669009 0.617241 0.414053
vn 0.528693 0.848279 0.030118
vn 0.353576 0.847561 0.395759
vn 0.353576 0.847561 0.395759
vn 0.180754 0.617258 0.765716
vn 0.669009 0.617241 0.414053
vn 0.766403 0.616382 -0.180830
vn 0.393826 0.849371 -0.351384
vn 0.528693 0.848279 0.030118
vn 0.528693 0.848279 0.030118
vn 0.669009 0.617241 0.414053
vn 0.766403 0.616382 -0.180830
vn 0.414626 0.615382 -0.670366
vn 0.029575 0.850195 -0.525636
vn 0.393826 0.849371 -0.351384
vn 0.393826 0.849371 -0.351384
vn 0.766403 0.616382 -0.180830
vn 0.414626 0.615382 -0.670366
vn 0.029575 0.850195 -0.525636
vn -0.352257 0.849609 -0.392530
vn 0.000000 1.000000 -0.000000
vn -0.352257 0.849609 -0.392530
vn -0.527171 0.849250 -0.029406
vn 0.000000 1.000000 -0.000000
vn -0.527171 0.849250 -0.029406
vn -0.394076 0.848803 0.352475
vn 0.000000 1.000000 -0.000000
vn -0.394076 0.848803 0.352475
vn -0.028625 0.848090 0.529078
vn 0.000000 1.000000 -0.000000
vn -0.028625 0.848090 0.529078
vn 0.353576 0.847561 0.395759
vn 0.000000 1.000000 -0.000000
vn 0.353576 0.847561 0.395759
vn 0.528693 0.848279 0.030118
vn 0.000000 1.000000 -0.000000
vn 0.528693 0.848279 0.030118
vn 0.393826 0.849371 -0.351384
vn 0.000000 1.000000 -0.000000
vn 0.393826 0.849371 -0.351384
vn 0.029575 0.850195 -0.525636
vn 0.000000 1.000000 -0.000000
s off
g IceCream
usemtl IceCreamSG
f 1/1/1 2/2/2 10/3/3
f 10/3/4 9/4/5 1/1/6
f 2/2/7 3/5/8 11/6/9
f 11/6/10 10/3/11 2/2/12
f 3/52/13 4/7/14 12/8/15
f 12/8/16 11/53/17 3/52/18
f 4/7/19 5/9/20 13/10/21
f 13/10/22 12/8/23 4/7/24
f 5/9/25 6/11/26 14/12/27
f 14/12/28 13/10/29 5/9/30
f 6/11/31 7/13/32 15/14/33
f 15/14/34 14/12/35 6/11/36
f 7/13/37 8/15/38 16/16/39
f 16/16/40 15/14/41 7/13/42
f 8/15/43 1/1/44 9/4/45
f 9/4/46 16/16/47 8/15/48
f 7/57/49 6/56/50 5/55/51
f 5/55/52 4/54/53 3/51/54
f 3/51/55 2/50/56 1/49/57
f 5/55/58 3/51/59 1/49/60
f 7/57/61 5/55/62 1/49/63
f 8/58/64 7/57/65 1/49/66
f 9/4/67 10/3/68 18/17/69
f 18/17/70 17/18/71 9/4/72
f 10/3/73 11/6/74 19/19/75
f 19/19/76 18/17/77 10/3/78
f 11/53/79 12/8/80 20/20/81
f 20/20/82 19/59/83 11/53/84
f 12/8/85 13/10/86 21/21/87
f 21/21/88 20/20/89 12/8/90
f 13/10/91 14/12/92 22/22/93
f 22/22/94 21/21/95 13/10/96
f 14/12/97 15/14/98 23/23/99
f 23/23/100 22/22/101 14/12/102
f 15/14/103 16/16/104 24/24/105
f 24/24/106 23/23/107 15/14/108
f 16/16/109 9/4/110 17/18/111
f 17/18/112 24/24/113 16/16/114
f 18/17/115 34/25/116 33/26/117
f 33/26/118 17/18/119 18/17/120
f 19/19/121 35/27/122 34/25/123
f 34/25/124 18/17/125 19/19/126
f 20/20/127 36/28/128 35/60/129
f 35/60/130 19/59/131 20/20/132
f 21/21/133 37/29/134 36/28/135
f 36/28/136 20/20/137 21/21/138
f 22/22/139 38/30/140 37/29/141
f 37/29/142 21/21/143 22/22/144
f 23/23/145 39/31/146 38/30/147
f 38/30/148 22/22/149 23/23/150
f 24/24/151 40/32/152 39/31/153
f 39/31/154 23/23/155 24/24/156
f 17/18/157 33/26/158 40/32/159
f 40/32/160 24/24/161 17/18/162
f 25/33/163 26/34/164 42/35/165
f 42/35/166 41/36/167 25/33/168
f 26/34/169 27/37/170 43/38/171
f 43/38/172 42/35/173 26/34/174
f 27/61/175 28/39/176 44/40/177
f 44/40/178 43/62/179 27/61/180
f 28/39/181 29/41/182 45/42/183
f 45/42/184 44/40/185 28/39/186
f 29/41/187 30/43/188 46/44/189
f 46/44/190 45/42/191 29/41/192
f 30/43/193 31/45/194 47/46/195
f 47/46/196 46/44/197 30/43/198
f 31/45/199 32/47/200 48/48/201
f 48/48/202 47/46/203 31/45/204
f 32/47/205 25/33/206 41/36/207
f 41/36/208 48/48/209 32/47/210
f 26/34/211 25/33/212 33/26/213
f 33/26/214 34/25/215 26/34/216
f 27/37/217 26/34/218 34/25/219
f 34/25/220 35/27/221 27/37/222
f 28/39/223 27/61/224 35/60/225
f 35/60/226 36/28/227 28/39/228
f 29/41/229 28/39/230 36/28/231
f 36/28/232 37/29/233 29/41/234
f 30/43/235 29/41/236 37/29/237
f 37/29/238 38/30/239 30/43/240
f 31/45/241 30/43/242 38/30/243
f 38/30/244 39/31/245 31/45/246
f 32/47/247 31/45/248 39/31/249
f 39/31/250 40/32/251 32/47/252
f 25/33/253 32/47/254 40/32/255
f 40/32/256 33/26/257 25/33/258
f 42/64/259 50/65/260 49/66/261
f 49/66/262 41/63/263 42/64/264
f 43/67/265 51/68/266 50/97/267
f 50/97/268 42/96/269 43/67/270
f 44/69/271 52/70/272 51/68/273
f 51/68/274 43/67/275 44/69/276
f 45/71/277 53/72/278 52/70/279
f 52/70/280 44/69/281 45/71/282
f 46/73/283 54/74/284 53/72/285
f 53/72/286 45/71/287 46/73/288
f 47/75/289 55/76/290 54/74/291
f 54/74/292 46/73/293 47/75/294
f 48/77/295 56/78/296 55/76/297
f 55/76/298 47/75/299 48/77/300
f 41/63/301 49/66/302 56/78/303
f 56/78/304 48/77/305 41/63/306
f 50/65/307 58/79/308 57/80/309
f 57/80/310 49/66/311 50/65/312
f 51/68/313 59/81/314 58/98/315
f 58/98/316 50/97/317 51/68/318
f 52/70/319 60/82/320 59/81/321
f 59/81/322 51/68/323 52/70/324
f 53/72/325 61/83/326 60/82/327
f 60/82/328 52/70/329 53/72/330
f 54/74/331 62/84/332 61/83/333
f 61/83/334 53/72/335 54/74/336
f 55/76/337 63/85/338 62/84/339
f 62/84/340 54/74/341 55/76/342
f 56/78/343 64/86/344 63/85/345
f 63/85/346 55/76/347 56/78/348
f 49/66/349 57/80/350 64/86/351
f 64/86/352 56/78/353 49/66/354
f 58/79/355 66/87/356 65/88/357
f 65/88/358 57/80/359 58/79/360
f 59/81/361 67/89/362 66/99/363
f 66/99/364 58/98/365 59/81/366
f 60/82/367 68/90/368 67/89/369
f 67/89/370 59/81/371 60/82/372
f 61/83/373 69/91/374 68/90/375
f 68/90/376 60/82/377 61/83/378
f 62/84/379 70/92/380 69/91/381
f 69/91/382 61/83/383 62/84/384
f 63/85/385 71/93/386 70/92/387
f 70/92/388 62/84/389 63/85/390
f 64/86/391 72/94/392 71/93/393
f 71/93/394 63/85/395 64/86/396
f 57/80/397 65/88/398 72/94/399
f 72/94/400 64/86/401 57/80/402
f 65/88/403 66/87/404 73/95/405
f 66/99/406 67/89/407 73/95/408
f 67/89/409 68/90/410 73/95/411
f 68/90/412 69/91/413 73/95/414
f 69/91/415 70/92/416 73/95/417
f 70/92/418 71/93/419 73/95/420
f 71/93/421 72/94/422 73/95/423
f 72/94/424 65/88/425 73/95/426
